SplineFontDB: 3.2
FontName: AurebeshLU
FullName: Aurebesh LU
FamilyName: Aurebesh LU
Weight: Regular
Copyright: CC-0 Lucy Universe
Version: 1.0
ItalicAngle: 0
UnderlinePosition: 52
UnderlineWidth: 34
Ascent: 1000
Descent: 0
InvalidEm: 0
sfntRevision: 0x00010000
LayerCount: 2
Layer: 0 1 "Back" 1
Layer: 1 1 "Fore" 0
XUID: [1021 764 -1482030943 21896]
StyleMap: 0x0040
FSType: 4
OS2Version: 2
OS2_WeightWidthSlopeOnly: 0
OS2_UseTypoMetrics: 0
CreationTime: 1595818715
ModificationTime: 1595822428
PfmFamily: 81
TTFWeight: 400
TTFWidth: 5
LineGap: 0
VLineGap: 0
Panose: 0 0 4 0 0 0 0 0 0 0
OS2TypoAscent: 700
OS2TypoAOffset: 0
OS2TypoDescent: 0
OS2TypoDOffset: 0
OS2TypoLinegap: 0
OS2WinAscent: 1100
OS2WinAOffset: 0
OS2WinDescent: 0
OS2WinDOffset: 0
HheadAscent: 1100
HheadAOffset: 0
HheadDescent: 0
HheadDOffset: 0
OS2SubXSize: 350
OS2SubYSize: 350
OS2SubXOff: 0
OS2SubYOff: 0
OS2SupXSize: 350
OS2SupYSize: 350
OS2SupXOff: 0
OS2SupYOff: 350
OS2StrikeYSize: 35
OS2StrikeYPos: 140
OS2CapHeight: 700
OS2XHeight: 700
OS2Vendor: 'FSTR'
OS2CodePages: 00000001.00000000
OS2UnicodeRanges: 80000001.00000000.00000000.00000000
MarkAttachClasses: 1
DEI: 91125
ShortTable: maxp 16
  1
  0
  89
  44
  11
  0
  0
  2
  0
  0
  0
  0
  0
  0
  0
  0
EndShort
LangName: 1033 "" "" "" "AurebeshLU" "" "Version 1.0" "" "" "" "Lucy Universe" "" "" "" "Creative Commons CC0 Public Domain Dedication" "http://creativecommons.org/publicdomain/zero/1.0/"
Encoding: UnicodeBmp
UnicodeInterp: none
NameList: AGL For New Fonts
DisplaySize: -72
AntiAlias: 1
FitToEm: 0
WinInfo: 0 25 10
BeginPrivate: 0
EndPrivate
BeginChars: 65539 89

StartChar: .notdef
Encoding: 65536 -1 0
Width: 800
VWidth: 699
Flags: W
LayerCount: 2
Fore
SplineSet
515 17 m 1,0,-1
 269 343 l 1,1,-1
 23 17 l 1,2,-1
 515 17 l 1,0,-1
17 23 m 1,3,-1
 263 350 l 1,4,-1
 17 676 l 1,5,-1
 17 23 l 1,6,-1
 17 23 l 1,3,-1
521 23 m 1,7,-1
 521 676 l 1,8,-1
 275 350 l 1,9,-1
 521 23 l 1,10,-1
 521 23 l 1,7,-1
269 356 m 1,11,-1
 515 683 l 1,12,-1
 23 683 l 1,13,-1
 269 356 l 1,14,-1
 269 356 l 1,11,-1
0 0 m 1,15,-1
 0 700 l 1,16,-1
 539 700 l 1,17,-1
 539 0 l 1,18,-1
 0 0 l 1,15,-1
EndSplineSet
EndChar

StartChar: exclam
Encoding: 33 33 4
Width: 800
VWidth: 699
Flags: W
LayerCount: 2
Fore
SplineSet
100 100 m 1,0,-1
 100 200 l 1,1,-1
 300 200 l 1,2,-1
 300 100 l 1,3,-1
 100 100 l 1,0,-1
300 200 m 1,4,-1
 300 300 l 1,5,-1
 500 300 l 1,6,-1
 500 200 l 1,7,-1
 300 200 l 1,4,-1
100 400 m 1,8,-1
 100 500 l 1,9,-1
 300 500 l 1,10,-1
 300 400 l 1,11,-1
 100 400 l 1,8,-1
300 500 m 1,12,-1
 300 600 l 1,13,-1
 500 600 l 1,14,-1
 500 500 l 1,15,-1
 300 500 l 1,12,-1
EndSplineSet
EndChar

StartChar: quotedbl
Encoding: 34 34 5
Width: 800
VWidth: 699
Flags: W
LayerCount: 2
Fore
SplineSet
300 400 m 1,0,-1
 300 500 l 1,1,-1
 400 500 l 1,2,-1
 400 400 l 1,3,-1
 300 400 l 1,0,-1
200 500 m 1,4,-1
 200 700 l 1,5,-1
 300 700 l 1,6,-1
 300 500 l 1,7,-1
 200 500 l 1,4,-1
400 500 m 1,8,-1
 400 700 l 1,9,-1
 500 700 l 1,10,-1
 500 500 l 1,11,-1
 400 500 l 1,8,-1
EndSplineSet
EndChar

StartChar: dollar
Encoding: 36 36 6
Width: 800
VWidth: 699
Flags: W
LayerCount: 2
Fore
SplineSet
400 0 m 1,0,-1
 400 200 l 1,1,-1
 500 200 l 1,2,-1
 500 0 l 1,3,-1
 400 0 l 1,0,-1
500 200 m 1,4,-1
 500 400 l 1,5,-1
 400 400 l 1,6,-1
 400 300 l 1,7,-1
 300 300 l 1,8,-1
 300 400 l 1,9,-1
 200 400 l 1,10,-1
 200 300 l 1,11,-1
 100 300 l 1,12,-1
 100 600 l 1,13,-1
 200 600 l 1,14,-1
 200 500 l 1,15,-1
 300 500 l 1,16,-1
 300 600 l 1,17,-1
 400 600 l 1,18,-1
 400 500 l 1,19,-1
 700 500 l 1,20,-1
 700 400 l 1,21,-1
 600 400 l 1,22,-1
 600 200 l 1,23,-1
 500 200 l 1,4,-1
EndSplineSet
EndChar

StartChar: quotesingle
Encoding: 39 39 7
Width: 800
VWidth: 699
Flags: W
LayerCount: 2
Fore
SplineSet
300 400 m 1,0,-1
 300 600 l 1,1,-1
 200 600 l 1,2,-1
 200 700 l 1,3,-1
 400 700 l 1,4,-1
 400 400 l 1,5,-1
 300 400 l 1,0,-1
EndSplineSet
EndChar

StartChar: plus
Encoding: 43 43 8
Width: 800
VWidth: 699
Flags: W
LayerCount: 2
Fore
SplineSet
600 100 m 1,0,-1
 600 600 l 1,1,-1
 100 600 l 1,2,-1
 100 400 l 1,3,-1
 400 400 l 1,4,-1
 400 300 l 1,5,-1
 100 300 l 1,6,-1
 100 100 l 1,7,-1
 600 100 l 1,0,-1
0 0 m 1,8,-1
 0 700 l 1,9,-1
 700 700 l 1,10,-1
 700 0 l 1,11,-1
 0 0 l 1,8,-1
EndSplineSet
EndChar

StartChar: comma
Encoding: 44 44 9
Width: 800
VWidth: 699
Flags: W
LayerCount: 2
Fore
SplineSet
200 0 m 1,0,-1
 200 300 l 1,1,-1
 300 300 l 1,2,-1
 300 0 l 1,3,-1
 200 0 l 1,0,-1
EndSplineSet
EndChar

StartChar: hyphen
Encoding: 45 45 10
Width: 800
VWidth: 699
Flags: W
LayerCount: 2
Fore
SplineSet
100 500 m 1,0,-1
 100 600 l 1,1,-1
 600 600 l 1,2,-1
 600 500 l 1,3,-1
 100 500 l 1,0,-1
EndSplineSet
EndChar

StartChar: period
Encoding: 46 46 11
Width: 800
VWidth: 699
Flags: W
LayerCount: 2
Fore
SplineSet
100 0 m 1,0,-1
 100 300 l 1,1,-1
 200 300 l 1,2,-1
 200 0 l 1,3,-1
 100 0 l 1,0,-1
300 0 m 1,4,-1
 300 300 l 1,5,-1
 400 300 l 1,6,-1
 400 0 l 1,7,-1
 300 0 l 1,4,-1
EndSplineSet
EndChar

StartChar: zero
Encoding: 48 48 12
Width: 800
VWidth: 699
Flags: W
LayerCount: 2
Fore
SplineSet
300 200 m 1,0,-1
 300 500 l 1,1,-1
 400 500 l 1,2,-1
 400 200 l 1,3,-1
 300 200 l 1,0,-1
600 100 m 1,4,-1
 600 600 l 1,5,-1
 100 600 l 1,6,-1
 100 100 l 1,7,-1
 600 100 l 1,4,-1
0 0 m 1,8,-1
 0 700 l 1,9,-1
 700 700 l 1,10,-1
 700 0 l 1,11,-1
 0 0 l 1,8,-1
EndSplineSet
EndChar

StartChar: one
Encoding: 49 49 13
Width: 800
VWidth: 699
Flags: W
LayerCount: 2
Fore
SplineSet
0 0 m 1,0,-1
 0 100 l 1,1,-1
 300 100 l 1,2,-1
 300 600 l 1,3,-1
 0 600 l 1,4,-1
 0 700 l 1,5,-1
 400 700 l 1,6,-1
 400 100 l 1,7,-1
 700 100 l 1,8,-1
 700 0 l 1,9,-1
 0 0 l 1,0,-1
EndSplineSet
EndChar

StartChar: two
Encoding: 50 50 14
Width: 800
VWidth: 699
Flags: W
LayerCount: 2
Fore
SplineSet
0 0 m 1,0,-1
 0 100 l 1,1,-1
 700 100 l 1,2,-1
 700 0 l 1,3,-1
 0 0 l 1,0,-1
0 300 m 1,4,-1
 0 400 l 1,5,-1
 600 400 l 1,6,-1
 600 600 l 1,7,-1
 0 600 l 1,8,-1
 0 700 l 1,9,-1
 700 700 l 1,10,-1
 700 300 l 1,11,-1
 0 300 l 1,4,-1
EndSplineSet
EndChar

StartChar: three
Encoding: 51 51 15
Width: 800
VWidth: 699
Flags: W
LayerCount: 2
Fore
SplineSet
0 300 m 1,0,-1
 0 400 l 1,1,-1
 500 400 l 1,2,-1
 500 300 l 1,3,-1
 0 300 l 1,0,-1
0 0 m 1,4,-1
 0 100 l 1,5,-1
 600 100 l 1,6,-1
 600 600 l 1,7,-1
 0 600 l 1,8,-1
 0 700 l 1,9,-1
 700 700 l 1,10,-1
 700 0 l 1,11,-1
 0 0 l 1,4,-1
EndSplineSet
EndChar

StartChar: four
Encoding: 52 52 16
Width: 800
VWidth: 699
Flags: W
LayerCount: 2
Fore
SplineSet
600 0 m 1,0,-1
 600 300 l 1,1,-1
 0 300 l 1,2,-1
 0 700 l 1,3,-1
 100 700 l 1,4,-1
 100 400 l 1,5,-1
 600 400 l 1,6,-1
 600 700 l 1,7,-1
 700 700 l 1,8,-1
 700 0 l 1,9,-1
 600 0 l 1,0,-1
EndSplineSet
EndChar

StartChar: five
Encoding: 53 53 17
Width: 800
VWidth: 699
Flags: W
LayerCount: 2
Fore
SplineSet
0 0 m 1,0,-1
 0 100 l 1,1,-1
 600 100 l 1,2,-1
 600 300 l 1,3,-1
 0 300 l 1,4,-1
 0 400 l 1,5,-1
 700 400 l 1,6,-1
 700 0 l 1,7,-1
 0 0 l 1,0,-1
0 600 m 1,8,-1
 0 700 l 1,9,-1
 700 700 l 1,10,-1
 700 600 l 1,11,-1
 0 600 l 1,8,-1
EndSplineSet
EndChar

StartChar: six
Encoding: 54 54 18
Width: 800
VWidth: 699
Flags: W
LayerCount: 2
Fore
SplineSet
600 100 m 1,0,-1
 600 300 l 1,1,-1
 100 300 l 1,2,-1
 100 100 l 1,3,-1
 600 100 l 1,0,-1
0 0 m 1,4,-1
 0 400 l 1,5,-1
 700 400 l 1,6,-1
 700 0 l 1,7,-1
 0 0 l 1,4,-1
0 600 m 1,8,-1
 0 700 l 1,9,-1
 700 700 l 1,10,-1
 700 600 l 1,11,-1
 0 600 l 1,8,-1
EndSplineSet
EndChar

StartChar: seven
Encoding: 55 55 19
Width: 800
VWidth: 699
Flags: W
LayerCount: 2
Fore
SplineSet
600 0 m 1,0,-1
 600 600 l 1,1,-1
 0 600 l 1,2,-1
 0 700 l 1,3,-1
 700 700 l 1,4,-1
 700 0 l 1,5,-1
 600 0 l 1,0,-1
EndSplineSet
EndChar

StartChar: eight
Encoding: 56 56 20
Width: 800
VWidth: 699
Flags: W
LayerCount: 2
Fore
SplineSet
600 100 m 1,0,-1
 600 300 l 1,1,-1
 100 300 l 1,2,-1
 100 100 l 1,3,-1
 600 100 l 1,0,-1
600 400 m 1,4,-1
 600 600 l 1,5,-1
 100 600 l 1,6,-1
 100 400 l 1,7,-1
 600 400 l 1,4,-1
0 0 m 1,8,-1
 0 700 l 1,9,-1
 700 700 l 1,10,-1
 700 0 l 1,11,-1
 0 0 l 1,8,-1
EndSplineSet
EndChar

StartChar: nine
Encoding: 57 57 21
Width: 800
VWidth: 699
Flags: W
LayerCount: 2
Fore
SplineSet
0 0 m 1,0,-1
 0 100 l 1,1,-1
 700 100 l 1,2,-1
 700 0 l 1,3,-1
 0 0 l 1,0,-1
600 400 m 1,4,-1
 600 600 l 1,5,-1
 100 600 l 1,6,-1
 100 400 l 1,7,-1
 600 400 l 1,4,-1
0 300 m 1,8,-1
 0 700 l 5,9,-1
 700 700 l 1,10,-1
 700 300 l 1,11,-1
 0 300 l 1,8,-1
EndSplineSet
EndChar

StartChar: colon
Encoding: 58 58 22
Width: 800
VWidth: 699
Flags: W
LayerCount: 2
Fore
SplineSet
100 0 m 1,0,-1
 100 100 l 1,1,-1
 300 100 l 1,2,-1
 300 200 l 1,3,-1
 400 200 l 1,4,-1
 400 100 l 1,5,-1
 500 100 l 1,6,-1
 500 0 l 1,7,-1
 100 0 l 1,0,-1
200 200 m 1,8,-1
 200 300 l 1,9,-1
 300 300 l 1,10,-1
 300 200 l 1,11,-1
 200 200 l 1,8,-1
100 300 m 1,12,-1
 100 400 l 1,13,-1
 200 400 l 1,14,-1
 200 300 l 1,15,-1
 100 300 l 1,12,-1
EndSplineSet
EndChar

StartChar: less
Encoding: 60 60 23
Width: 800
VWidth: 699
Flags: W
LayerCount: 2
Fore
SplineSet
0 0 m 1,0,-1
 0 200 l 1,1,-1
 100 200 l 1,2,-1
 100 0 l 1,3,-1
 0 0 l 1,0,-1
100 200 m 1,4,-1
 100 400 l 1,5,-1
 200 400 l 1,6,-1
 200 200 l 1,7,-1
 100 200 l 1,4,-1
600 0 m 1,8,-1
 600 600 l 1,9,-1
 300 600 l 1,10,-1
 300 400 l 1,11,-1
 200 400 l 1,12,-1
 200 600 l 1,13,-1
 0 600 l 1,14,-1
 0 700 l 1,15,-1
 700 700 l 1,16,-1
 700 0 l 1,17,-1
 600 0 l 1,8,-1
EndSplineSet
EndChar

StartChar: equal
Encoding: 61 61 24
Width: 800
VWidth: 699
Flags: W
LayerCount: 2
Fore
SplineSet
0 0 m 1,0,-1
 0 700 l 1,1,-1
 300 700 l 1,2,-1
 300 600 l 1,3,-1
 100 600 l 1,4,-1
 100 100 l 1,5,-1
 300 100 l 1,6,-1
 300 0 l 1,7,-1
 0 0 l 1,0,-1
400 0 m 1,8,-1
 400 100 l 1,9,-1
 600 100 l 1,10,-1
 600 600 l 1,11,-1
 400 600 l 1,12,-1
 400 700 l 1,13,-1
 700 700 l 1,14,-1
 700 0 l 1,15,-1
 400 0 l 1,8,-1
EndSplineSet
EndChar

StartChar: greater
Encoding: 62 62 25
Width: 800
VWidth: 699
Flags: W
LayerCount: 2
Fore
SplineSet
0 0 m 1,0,-1
 0 100 l 1,1,-1
 100 100 l 1,2,-1
 100 0 l 1,3,-1
 0 0 l 1,0,-1
100 100 m 1,4,-1
 100 200 l 1,5,-1
 200 200 l 1,6,-1
 200 100 l 1,7,-1
 100 100 l 1,4,-1
200 200 m 1,8,-1
 200 300 l 1,9,-1
 300 300 l 1,10,-1
 300 200 l 1,11,-1
 200 200 l 1,8,-1
600 0 m 1,12,-1
 600 300 l 1,13,-1
 300 300 l 1,14,-1
 300 400 l 1,15,-1
 600 400 l 1,16,-1
 600 700 l 1,17,-1
 700 700 l 1,18,-1
 700 0 l 1,19,-1
 600 0 l 1,12,-1
EndSplineSet
EndChar

StartChar: question
Encoding: 63 63 26
Width: 800
VWidth: 699
Flags: W
LayerCount: 2
Fore
SplineSet
200 0 m 1,0,-1
 200 100 l 1,1,-1
 300 100 l 1,2,-1
 300 0 l 1,3,-1
 200 0 l 1,0,-1
300 100 m 1,4,-1
 300 200 l 1,5,-1
 400 200 l 1,6,-1
 400 100 l 1,7,-1
 300 100 l 1,4,-1
400 200 m 1,8,-1
 400 500 l 1,9,-1
 500 500 l 1,10,-1
 500 200 l 1,11,-1
 400 200 l 1,8,-1
300 500 m 1,12,-1
 300 600 l 1,13,-1
 400 600 l 1,14,-1
 400 500 l 1,15,-1
 300 500 l 1,12,-1
100 400 m 1,16,-1
 100 700 l 1,17,-1
 300 700 l 1,18,-1
 300 600 l 1,19,-1
 200 600 l 1,20,-1
 200 400 l 1,21,-1
 100 400 l 1,16,-1
EndSplineSet
EndChar

StartChar: A
Encoding: 65 65 27
Width: 800
VWidth: 699
Flags: W
LayerCount: 2
Fore
SplineSet
600 0 m 1,0,-1
 600 100 l 1,1,-1
 700 100 l 1,2,-1
 700 0 l 1,3,-1
 600 0 l 1,0,-1
400 100 m 1,4,-1
 400 200 l 1,5,-1
 600 200 l 1,6,-1
 600 100 l 1,7,-1
 400 100 l 1,4,-1
0 0 m 1,8,-1
 0 300 l 1,9,-1
 400 300 l 1,10,-1
 400 200 l 1,11,-1
 100 200 l 1,12,-1
 100 0 l 1,13,-1
 0 0 l 1,8,-1
400 500 m 1,14,-1
 400 600 l 1,15,-1
 600 600 l 1,16,-1
 600 500 l 1,17,-1
 400 500 l 1,14,-1
0 400 m 1,18,-1
 0 700 l 1,19,-1
 100 700 l 1,20,-1
 100 500 l 1,21,-1
 400 500 l 1,22,-1
 400 400 l 1,23,-1
 0 400 l 1,18,-1
600 600 m 1,24,-1
 600 700 l 1,25,-1
 700 700 l 1,26,-1
 700 600 l 1,27,-1
 600 600 l 1,24,-1
EndSplineSet
EndChar

StartChar: B
Encoding: 66 66 28
Width: 800
VWidth: 699
Flags: W
LayerCount: 2
Fore
SplineSet
200 0 m 1,0,-1
 200 100 l 1,1,-1
 500 100 l 1,2,-1
 500 0 l 1,3,-1
 200 0 l 1,0,-1
100 100 m 1,4,-1
 100 200 l 1,5,-1
 200 200 l 1,6,-1
 200 100 l 1,7,-1
 100 100 l 1,4,-1
500 100 m 1,8,-1
 500 200 l 1,9,-1
 600 200 l 1,10,-1
 600 100 l 1,11,-1
 500 100 l 1,8,-1
0 200 m 1,12,-1
 0 300 l 1,13,-1
 100 300 l 1,14,-1
 100 200 l 1,15,-1
 0 200 l 1,12,-1
600 200 m 1,16,-1
 600 300 l 1,17,-1
 700 300 l 1,18,-1
 700 200 l 1,19,-1
 600 200 l 1,16,-1
200 300 m 1,20,-1
 200 400 l 1,21,-1
 500 400 l 1,22,-1
 500 300 l 1,23,-1
 200 300 l 1,20,-1
0 400 m 1,24,-1
 0 500 l 1,25,-1
 100 500 l 1,26,-1
 100 400 l 1,27,-1
 0 400 l 1,24,-1
600 400 m 1,28,-1
 600 500 l 1,29,-1
 700 500 l 1,30,-1
 700 400 l 1,31,-1
 600 400 l 1,28,-1
100 500 m 1,32,-1
 100 600 l 1,33,-1
 200 600 l 1,34,-1
 200 500 l 1,35,-1
 100 500 l 1,32,-1
500 500 m 1,36,-1
 500 600 l 1,37,-1
 600 600 l 1,38,-1
 600 500 l 1,39,-1
 500 500 l 1,36,-1
200 600 m 1,40,-1
 200 700 l 1,41,-1
 500 700 l 1,42,-1
 500 600 l 1,43,-1
 200 600 l 1,40,-1
EndSplineSet
EndChar

StartChar: C
Encoding: 67 67 29
Width: 800
VWidth: 699
Flags: W
LayerCount: 2
Fore
SplineSet
300 300 m 1,0,-1
 300 400 l 1,1,-1
 400 400 l 1,2,-1
 400 300 l 1,3,-1
 300 300 l 1,0,-1
500 0 m 1,4,-1
 500 400 l 1,5,-1
 600 400 l 1,6,-1
 600 0 l 1,7,-1
 500 0 l 1,4,-1
100 300 m 1,8,-1
 100 700 l 1,9,-1
 200 700 l 1,10,-1
 200 300 l 1,11,-1
 100 300 l 1,8,-1
EndSplineSet
EndChar

StartChar: D
Encoding: 68 68 30
Width: 800
VWidth: 699
Flags: W
LayerCount: 2
Fore
SplineSet
300 0 m 1,0,-1
 300 200 l 1,1,-1
 400 200 l 1,2,-1
 400 0 l 1,3,-1
 300 0 l 1,0,-1
400 200 m 1,4,-1
 400 300 l 1,5,-1
 200 300 l 1,6,-1
 200 400 l 1,7,-1
 500 400 l 1,8,-1
 500 200 l 1,9,-1
 400 200 l 1,4,-1
500 400 m 1,10,-1
 500 600 l 1,11,-1
 0 600 l 1,12,-1
 0 700 l 1,13,-1
 700 700 l 1,14,-1
 700 600 l 1,15,-1
 600 600 l 1,16,-1
 600 400 l 1,17,-1
 500 400 l 1,10,-1
EndSplineSet
EndChar

StartChar: E
Encoding: 69 69 31
Width: 800
VWidth: 699
Flags: W
LayerCount: 2
Fore
SplineSet
200 0 m 1,0,-1
 200 200 l 1,1,-1
 300 200 l 1,2,-1
 300 0 l 1,3,-1
 200 0 l 1,0,-1
100 200 m 1,4,-1
 100 500 l 1,5,-1
 200 500 l 1,6,-1
 200 200 l 1,7,-1
 100 200 l 1,4,-1
300 200 m 1,8,-1
 300 500 l 1,9,-1
 400 500 l 1,10,-1
 400 200 l 1,11,-1
 300 200 l 1,8,-1
0 500 m 1,12,-1
 0 700 l 1,13,-1
 100 700 l 1,14,-1
 100 500 l 1,15,-1
 0 500 l 1,12,-1
500 0 m 1,16,-1
 500 500 l 1,17,-1
 400 500 l 1,18,-1
 400 700 l 1,19,-1
 700 700 l 1,20,-1
 700 600 l 1,21,-1
 600 600 l 1,22,-1
 600 0 l 1,23,-1
 500 0 l 1,16,-1
EndSplineSet
EndChar

StartChar: F
Encoding: 70 70 32
Width: 800
VWidth: 699
Flags: W
LayerCount: 2
Fore
SplineSet
300 100 m 1,0,-1
 300 300 l 1,1,-1
 100 300 l 1,2,-1
 100 100 l 1,3,-1
 300 100 l 1,0,-1
500 500 m 1,4,-1
 500 600 l 1,5,-1
 600 600 l 1,6,-1
 600 500 l 1,7,-1
 500 500 l 1,4,-1
0 0 m 1,8,-1
 0 400 l 1,9,-1
 300 400 l 1,10,-1
 300 700 l 1,11,-1
 400 700 l 1,12,-1
 400 500 l 1,13,-1
 500 500 l 1,14,-1
 500 400 l 1,15,-1
 400 400 l 1,16,-1
 400 100 l 1,17,-1
 700 100 l 1,18,-1
 700 0 l 1,19,-1
 0 0 l 1,8,-1
600 600 m 1,20,-1
 600 700 l 1,21,-1
 700 700 l 1,22,-1
 700 600 l 1,23,-1
 600 600 l 1,20,-1
EndSplineSet
EndChar

StartChar: G
Encoding: 71 71 33
Width: 800
VWidth: 699
Flags: W
LayerCount: 2
Fore
SplineSet
400 100 m 1,0,-1
 400 300 l 1,1,-1
 500 300 l 1,2,-1
 500 100 l 1,3,-1
 400 100 l 1,0,-1
500 300 m 1,4,-1
 500 500 l 1,5,-1
 600 500 l 1,6,-1
 600 300 l 1,7,-1
 500 300 l 1,4,-1
300 500 m 1,8,-1
 300 600 l 1,9,-1
 400 600 l 1,10,-1
 400 500 l 1,11,-1
 300 500 l 1,8,-1
0 0 m 1,12,-1
 0 700 l 1,13,-1
 100 700 l 1,14,-1
 100 100 l 1,15,-1
 400 100 l 1,16,-1
 400 0 l 1,17,-1
 0 0 l 1,12,-1
600 500 m 1,18,-1
 600 600 l 1,19,-1
 400 600 l 1,20,-1
 400 700 l 1,21,-1
 700 700 l 1,22,-1
 700 500 l 1,23,-1
 600 500 l 1,18,-1
EndSplineSet
EndChar

StartChar: H
Encoding: 72 72 34
Width: 800
VWidth: 699
Flags: W
LayerCount: 2
Fore
SplineSet
0 0 m 1,0,-1
 0 100 l 1,1,-1
 700 100 l 1,2,-1
 700 0 l 1,3,-1
 0 0 l 1,0,-1
100 300 m 1,4,-1
 100 400 l 1,5,-1
 600 400 l 1,6,-1
 600 300 l 1,7,-1
 100 300 l 1,4,-1
0 600 m 1,8,-1
 0 700 l 1,9,-1
 700 700 l 1,10,-1
 700 600 l 1,11,-1
 0 600 l 1,8,-1
EndSplineSet
EndChar

StartChar: I
Encoding: 73 73 35
Width: 800
VWidth: 699
Flags: W
LayerCount: 2
Fore
SplineSet
100 300 m 1,0,-1
 100 400 l 1,1,-1
 200 400 l 1,2,-1
 200 300 l 1,3,-1
 100 300 l 1,0,-1
200 400 m 1,4,-1
 200 500 l 1,5,-1
 300 500 l 1,6,-1
 300 400 l 1,7,-1
 200 400 l 1,4,-1
400 0 m 1,8,-1
 400 500 l 1,9,-1
 300 500 l 1,10,-1
 300 600 l 1,11,-1
 400 600 l 1,12,-1
 400 700 l 1,13,-1
 500 700 l 1,14,-1
 500 0 l 1,15,-1
 400 0 l 1,8,-1
EndSplineSet
EndChar

StartChar: J
Encoding: 74 74 36
Width: 800
VWidth: 699
Flags: W
LayerCount: 2
Fore
SplineSet
0 0 m 1,0,-1
 0 100 l 1,1,-1
 500 100 l 1,2,-1
 500 0 l 1,3,-1
 0 0 l 1,0,-1
0 300 m 1,4,-1
 0 400 l 1,5,-1
 200 400 l 1,6,-1
 200 300 l 1,7,-1
 0 300 l 1,4,-1
500 100 m 1,8,-1
 500 400 l 1,9,-1
 600 400 l 1,10,-1
 600 100 l 1,11,-1
 500 100 l 1,8,-1
200 400 m 1,12,-1
 200 500 l 1,13,-1
 400 500 l 1,14,-1
 400 400 l 1,15,-1
 200 400 l 1,12,-1
600 400 m 1,16,-1
 600 500 l 1,17,-1
 400 500 l 1,18,-1
 400 600 l 1,19,-1
 600 600 l 1,20,-1
 600 700 l 1,21,-1
 700 700 l 1,22,-1
 700 400 l 1,23,-1
 600 400 l 1,16,-1
EndSplineSet
EndChar

StartChar: K
Encoding: 75 75 37
Width: 800
VWidth: 699
Flags: W
LayerCount: 2
Fore
SplineSet
0 0 m 1,0,-1
 0 100 l 1,1,-1
 600 100 l 1,2,-1
 600 600 l 1,3,-1
 0 600 l 1,4,-1
 0 700 l 1,5,-1
 700 700 l 1,6,-1
 700 0 l 1,7,-1
 0 0 l 1,0,-1
EndSplineSet
EndChar

StartChar: L
Encoding: 76 76 38
Width: 800
VWidth: 699
Flags: W
LayerCount: 2
Fore
SplineSet
200 200 m 1,0,-1
 200 300 l 1,1,-1
 300 300 l 1,2,-1
 300 200 l 1,3,-1
 200 200 l 1,0,-1
100 300 m 1,4,-1
 100 400 l 1,5,-1
 200 400 l 1,6,-1
 200 300 l 1,7,-1
 100 300 l 1,4,-1
400 0 m 1,8,-1
 400 100 l 1,9,-1
 300 100 l 1,10,-1
 300 200 l 1,11,-1
 400 200 l 1,12,-1
 400 700 l 1,13,-1
 500 700 l 1,14,-1
 500 0 l 1,15,-1
 400 0 l 1,8,-1
EndSplineSet
EndChar

StartChar: M
Encoding: 77 77 39
Width: 800
VWidth: 699
Flags: W
LayerCount: 2
Fore
SplineSet
100 0 m 1,0,-1
 100 200 l 1,1,-1
 200 200 l 1,2,-1
 200 100 l 1,3,-1
 600 100 l 1,4,-1
 600 0 l 1,5,-1
 100 0 l 1,0,-1
200 200 m 1,6,-1
 200 400 l 1,7,-1
 300 400 l 1,8,-1
 300 200 l 1,9,-1
 200 200 l 1,6,-1
300 400 m 1,10,-1
 300 600 l 1,11,-1
 400 600 l 1,12,-1
 400 400 l 1,13,-1
 300 400 l 1,10,-1
400 600 m 1,14,-1
 400 700 l 1,15,-1
 600 700 l 1,16,-1
 600 600 l 1,17,-1
 400 600 l 1,14,-1
EndSplineSet
EndChar

StartChar: N
Encoding: 78 78 40
Width: 800
VWidth: 699
Flags: W
LayerCount: 2
Fore
SplineSet
100 0 m 1,0,-1
 100 200 l 1,1,-1
 200 200 l 1,2,-1
 200 300 l 1,3,-1
 300 300 l 1,4,-1
 300 0 l 1,5,-1
 100 0 l 1,0,-1
600 0 m 1,6,-1
 600 300 l 1,7,-1
 700 300 l 1,8,-1
 700 0 l 1,9,-1
 600 0 l 1,6,-1
0 200 m 1,10,-1
 0 500 l 1,11,-1
 100 500 l 1,12,-1
 100 200 l 1,13,-1
 0 200 l 1,10,-1
300 300 m 1,14,-1
 300 500 l 1,15,-1
 400 500 l 1,16,-1
 400 300 l 1,17,-1
 300 300 l 1,14,-1
500 300 m 1,18,-1
 500 500 l 1,19,-1
 600 500 l 1,20,-1
 600 300 l 1,21,-1
 500 300 l 1,18,-1
100 500 m 1,22,-1
 100 700 l 1,23,-1
 200 700 l 1,24,-1
 200 500 l 1,25,-1
 100 500 l 1,22,-1
400 500 m 1,26,-1
 400 700 l 1,27,-1
 500 700 l 1,28,-1
 500 500 l 1,29,-1
 400 500 l 1,26,-1
EndSplineSet
EndChar

StartChar: O
Encoding: 79 79 41
Width: 800
VWidth: 699
Flags: W
LayerCount: 2
Fore
SplineSet
0 0 m 1,0,-1
 0 300 l 1,1,-1
 100 300 l 1,2,-1
 100 100 l 1,3,-1
 600 100 l 1,4,-1
 600 300 l 1,5,-1
 700 300 l 1,6,-1
 700 0 l 1,7,-1
 0 0 l 1,0,-1
100 300 m 1,8,-1
 100 600 l 1,9,-1
 200 600 l 1,10,-1
 200 300 l 1,11,-1
 100 300 l 1,8,-1
500 300 m 1,12,-1
 500 600 l 1,13,-1
 600 600 l 1,14,-1
 600 300 l 1,15,-1
 500 300 l 1,12,-1
200 600 m 1,16,-1
 200 700 l 1,17,-1
 500 700 l 1,18,-1
 500 600 l 1,19,-1
 200 600 l 1,16,-1
EndSplineSet
EndChar

StartChar: P
Encoding: 80 80 42
Width: 800
VWidth: 699
Flags: W
LayerCount: 2
Fore
SplineSet
0 200 m 1,0,-1
 0 500 l 1,1,-1
 100 500 l 1,2,-1
 100 200 l 1,3,-1
 0 200 l 1,0,-1
300 500 m 1,4,-1
 300 600 l 1,5,-1
 400 600 l 1,6,-1
 400 500 l 1,7,-1
 300 500 l 1,4,-1
100 500 m 1,8,-1
 100 700 l 1,9,-1
 300 700 l 1,10,-1
 300 600 l 1,11,-1
 200 600 l 1,12,-1
 200 500 l 1,13,-1
 100 500 l 1,8,-1
100 0 m 1,14,-1
 100 200 l 1,15,-1
 200 200 l 1,16,-1
 200 100 l 1,17,-1
 600 100 l 1,18,-1
 600 700 l 1,19,-1
 700 700 l 1,20,-1
 700 0 l 1,21,-1
 100 0 l 1,14,-1
EndSplineSet
EndChar

StartChar: Q
Encoding: 81 81 43
Width: 800
VWidth: 699
Flags: W
LayerCount: 2
Fore
SplineSet
0 0 m 1,0,-1
 0 700 l 1,1,-1
 700 700 l 1,2,-1
 700 300 l 1,3,-1
 600 300 l 1,4,-1
 600 600 l 1,5,-1
 100 600 l 1,6,-1
 100 100 l 1,7,-1
 500 100 l 1,8,-1
 500 0 l 1,9,-1
 0 0 l 1,0,-1
EndSplineSet
EndChar

StartChar: R
Encoding: 82 82 44
Width: 800
VWidth: 699
Flags: W
LayerCount: 2
Fore
SplineSet
300 0 m 1,0,-1
 300 200 l 1,1,-1
 400 200 l 1,2,-1
 400 0 l 1,3,-1
 300 0 l 1,0,-1
400 200 m 1,4,-1
 400 400 l 1,5,-1
 500 400 l 1,6,-1
 500 200 l 1,7,-1
 400 200 l 1,4,-1
500 400 m 1,8,-1
 500 600 l 1,9,-1
 0 600 l 1,10,-1
 0 700 l 1,11,-1
 700 700 l 1,12,-1
 700 600 l 1,13,-1
 600 600 l 1,14,-1
 600 400 l 1,15,-1
 500 400 l 1,8,-1
EndSplineSet
EndChar

StartChar: S
Encoding: 83 83 45
Width: 800
VWidth: 699
Flags: W
LayerCount: 2
Fore
SplineSet
300 0 m 1,0,-1
 300 100 l 1,1,-1
 400 100 l 1,2,-1
 400 0 l 1,3,-1
 300 0 l 1,0,-1
100 100 m 1,4,-1
 100 200 l 1,5,-1
 300 200 l 1,6,-1
 300 100 l 1,7,-1
 100 100 l 1,4,-1
0 200 m 1,8,-1
 0 300 l 1,9,-1
 100 300 l 1,10,-1
 100 200 l 1,11,-1
 0 200 l 1,8,-1
400 200 m 1,12,-1
 400 300 l 1,13,-1
 500 300 l 1,14,-1
 500 200 l 1,15,-1
 400 200 l 1,12,-1
300 300 m 1,16,-1
 300 400 l 1,17,-1
 400 400 l 1,18,-1
 400 300 l 1,19,-1
 300 300 l 1,16,-1
200 400 m 1,20,-1
 200 500 l 1,21,-1
 300 500 l 1,22,-1
 300 400 l 1,23,-1
 200 400 l 1,20,-1
100 500 m 1,24,-1
 100 600 l 1,25,-1
 200 600 l 1,26,-1
 200 500 l 1,27,-1
 100 500 l 1,24,-1
0 600 m 1,28,-1
 0 700 l 1,29,-1
 100 700 l 1,30,-1
 100 600 l 1,31,-1
 0 600 l 1,28,-1
600 0 m 1,32,-1
 600 100 l 1,33,-1
 500 100 l 1,34,-1
 500 200 l 1,35,-1
 600 200 l 1,36,-1
 600 700 l 1,37,-1
 700 700 l 1,38,-1
 700 0 l 1,39,-1
 600 0 l 1,32,-1
EndSplineSet
EndChar

StartChar: T
Encoding: 84 84 46
Width: 800
VWidth: 699
Flags: W
LayerCount: 2
Fore
SplineSet
100 200 m 1,0,-1
 100 300 l 1,1,-1
 200 300 l 1,2,-1
 200 200 l 1,3,-1
 100 200 l 1,0,-1
500 200 m 1,4,-1
 500 300 l 1,5,-1
 600 300 l 1,6,-1
 600 200 l 1,7,-1
 500 200 l 1,4,-1
0 300 m 1,8,-1
 0 400 l 1,9,-1
 100 400 l 1,10,-1
 100 300 l 1,11,-1
 0 300 l 1,8,-1
600 300 m 1,12,-1
 600 400 l 1,13,-1
 700 400 l 1,14,-1
 700 300 l 1,15,-1
 600 300 l 1,12,-1
300 0 m 1,16,-1
 300 100 l 1,17,-1
 200 100 l 1,18,-1
 200 200 l 1,19,-1
 300 200 l 1,20,-1
 300 700 l 1,21,-1
 400 700 l 1,22,-1
 400 200 l 1,23,-1
 500 200 l 1,24,-1
 500 100 l 1,25,-1
 400 100 l 1,26,-1
 400 0 l 1,27,-1
 300 0 l 1,16,-1
EndSplineSet
EndChar

StartChar: U
Encoding: 85 85 47
Width: 800
VWidth: 699
Flags: W
LayerCount: 2
Fore
SplineSet
300 500 m 1,0,-1
 300 600 l 1,1,-1
 400 600 l 1,2,-1
 400 500 l 1,3,-1
 300 500 l 1,0,-1
0 0 m 1,4,-1
 0 700 l 1,5,-1
 100 700 l 1,6,-1
 100 100 l 1,7,-1
 600 100 l 1,8,-1
 600 600 l 1,9,-1
 400 600 l 1,10,-1
 400 700 l 1,11,-1
 700 700 l 1,12,-1
 700 0 l 1,13,-1
 0 0 l 1,4,-1
EndSplineSet
EndChar

StartChar: V
Encoding: 86 86 48
Width: 800
VWidth: 699
Flags: W
LayerCount: 2
Fore
SplineSet
300 0 m 1,0,-1
 300 400 l 1,1,-1
 400 400 l 1,2,-1
 400 0 l 1,3,-1
 300 0 l 1,0,-1
200 400 m 1,4,-1
 200 500 l 1,5,-1
 300 500 l 1,6,-1
 300 400 l 1,7,-1
 200 400 l 1,4,-1
400 400 m 1,8,-1
 400 500 l 1,9,-1
 500 500 l 1,10,-1
 500 400 l 1,11,-1
 400 400 l 1,8,-1
100 500 m 1,12,-1
 100 600 l 1,13,-1
 200 600 l 1,14,-1
 200 500 l 1,15,-1
 100 500 l 1,12,-1
500 500 m 1,16,-1
 500 600 l 1,17,-1
 600 600 l 1,18,-1
 600 500 l 1,19,-1
 500 500 l 1,16,-1
0 600 m 1,20,-1
 0 700 l 1,21,-1
 100 700 l 1,22,-1
 100 600 l 1,23,-1
 0 600 l 1,20,-1
600 600 m 1,24,-1
 600 700 l 1,25,-1
 700 700 l 1,26,-1
 700 600 l 1,27,-1
 600 600 l 1,24,-1
EndSplineSet
EndChar

StartChar: W
Encoding: 87 87 49
Width: 800
VWidth: 699
Flags: W
LayerCount: 2
Fore
SplineSet
600 100 m 1,0,-1
 600 600 l 1,1,-1
 100 600 l 1,2,-1
 100 100 l 1,3,-1
 600 100 l 1,0,-1
0 0 m 1,4,-1
 0 700 l 1,5,-1
 700 700 l 1,6,-1
 700 0 l 1,7,-1
 0 0 l 1,4,-1
EndSplineSet
EndChar

StartChar: X
Encoding: 88 88 50
Width: 800
VWidth: 699
Flags: W
LayerCount: 2
Fore
SplineSet
0 0 m 1,0,-1
 0 200 l 1,1,-1
 100 200 l 1,2,-1
 100 100 l 1,3,-1
 600 100 l 1,4,-1
 600 200 l 1,5,-1
 700 200 l 1,6,-1
 700 0 l 1,7,-1
 0 0 l 1,0,-1
100 200 m 1,8,-1
 100 400 l 1,9,-1
 200 400 l 1,10,-1
 200 200 l 1,11,-1
 100 200 l 1,8,-1
500 200 m 1,12,-1
 500 400 l 1,13,-1
 600 400 l 1,14,-1
 600 200 l 1,15,-1
 500 200 l 1,12,-1
200 400 m 1,16,-1
 200 600 l 1,17,-1
 300 600 l 1,18,-1
 300 400 l 1,19,-1
 200 400 l 1,16,-1
400 400 m 1,20,-1
 400 600 l 1,21,-1
 500 600 l 1,22,-1
 500 400 l 1,23,-1
 400 400 l 1,20,-1
300 600 m 1,24,-1
 300 700 l 1,25,-1
 400 700 l 1,26,-1
 400 600 l 1,27,-1
 300 600 l 1,24,-1
EndSplineSet
EndChar

StartChar: Y
Encoding: 89 89 51
Width: 800
VWidth: 699
Flags: W
LayerCount: 2
Fore
SplineSet
300 0 m 1,0,-1
 300 100 l 1,1,-1
 400 100 l 1,2,-1
 400 0 l 1,3,-1
 300 0 l 1,0,-1
200 100 m 1,4,-1
 200 300 l 1,5,-1
 300 300 l 1,6,-1
 300 100 l 1,7,-1
 200 100 l 1,4,-1
400 100 m 1,8,-1
 400 300 l 1,9,-1
 500 300 l 1,10,-1
 500 100 l 1,11,-1
 400 100 l 1,8,-1
100 300 m 1,12,-1
 100 500 l 1,13,-1
 200 500 l 1,14,-1
 200 300 l 1,15,-1
 100 300 l 1,12,-1
300 300 m 1,16,-1
 300 500 l 1,17,-1
 400 500 l 1,18,-1
 400 300 l 1,19,-1
 300 300 l 1,16,-1
500 300 m 1,20,-1
 500 500 l 1,21,-1
 600 500 l 1,22,-1
 600 300 l 1,23,-1
 500 300 l 1,20,-1
0 500 m 1,24,-1
 0 700 l 1,25,-1
 300 700 l 1,26,-1
 300 500 l 1,27,-1
 200 500 l 1,28,-1
 200 600 l 1,29,-1
 100 600 l 1,30,-1
 100 500 l 1,31,-1
 0 500 l 1,24,-1
600 500 m 1,32,-1
 600 700 l 1,33,-1
 700 700 l 1,34,-1
 700 500 l 1,35,-1
 600 500 l 1,32,-1
EndSplineSet
EndChar

StartChar: Z
Encoding: 90 90 52
Width: 800
VWidth: 699
Flags: W
LayerCount: 2
Fore
SplineSet
100 300 m 1,0,-1
 100 400 l 1,1,-1
 200 400 l 1,2,-1
 200 300 l 1,3,-1
 100 300 l 1,0,-1
0 0 m 1,4,-1
 0 200 l 1,5,-1
 100 200 l 1,6,-1
 100 100 l 1,7,-1
 600 100 l 1,8,-1
 600 400 l 1,9,-1
 200 400 l 1,10,-1
 200 500 l 1,11,-1
 600 500 l 1,12,-1
 600 700 l 1,13,-1
 700 700 l 1,14,-1
 700 0 l 1,15,-1
 0 0 l 1,4,-1
EndSplineSet
EndChar

StartChar: bracketleft
Encoding: 91 91 53
Width: 800
VWidth: 699
Flags: W
LayerCount: 2
Fore
SplineSet
0 100 m 1,0,-1
 0 200 l 1,1,-1
 100 200 l 1,2,-1
 100 100 l 1,3,-1
 0 100 l 1,0,-1
0 500 m 1,4,-1
 0 600 l 1,5,-1
 100 600 l 1,6,-1
 100 500 l 1,7,-1
 0 500 l 1,4,-1
100 0 m 1,8,-1
 100 100 l 1,9,-1
 600 100 l 1,10,-1
 600 300 l 1,11,-1
 300 300 l 1,12,-1
 300 400 l 1,13,-1
 600 400 l 1,14,-1
 600 600 l 1,15,-1
 100 600 l 1,16,-1
 100 700 l 1,17,-1
 700 700 l 1,18,-1
 700 0 l 1,19,-1
 100 0 l 1,8,-1
EndSplineSet
EndChar

StartChar: bracketright
Encoding: 93 93 54
Width: 800
VWidth: 699
Flags: W
LayerCount: 2
Fore
SplineSet
0 0 m 1,0,-1
 0 100 l 1,1,-1
 600 100 l 1,2,-1
 600 200 l 1,3,-1
 700 200 l 1,4,-1
 700 0 l 1,5,-1
 0 0 l 1,0,-1
500 200 m 1,6,-1
 500 400 l 1,7,-1
 600 400 l 1,8,-1
 600 200 l 1,9,-1
 500 200 l 1,6,-1
400 400 m 1,10,-1
 400 600 l 1,11,-1
 500 600 l 1,12,-1
 500 400 l 1,13,-1
 400 400 l 1,10,-1
0 600 m 1,14,-1
 0 700 l 1,15,-1
 400 700 l 1,16,-1
 400 600 l 1,17,-1
 0 600 l 1,14,-1
EndSplineSet
EndChar

StartChar: a
Encoding: 97 97 56
Width: 800
VWidth: 699
Flags: W
LayerCount: 2
Fore
SplineSet
600 0 m 1,0,-1
 600 100 l 1,1,-1
 700 100 l 1,2,-1
 700 0 l 1,3,-1
 600 0 l 1,0,-1
400 100 m 1,4,-1
 400 200 l 1,5,-1
 600 200 l 1,6,-1
 600 100 l 1,7,-1
 400 100 l 1,4,-1
0 0 m 1,8,-1
 0 300 l 1,9,-1
 400 300 l 1,10,-1
 400 200 l 1,11,-1
 100 200 l 1,12,-1
 100 0 l 1,13,-1
 0 0 l 1,8,-1
400 500 m 1,14,-1
 400 600 l 1,15,-1
 600 600 l 1,16,-1
 600 500 l 1,17,-1
 400 500 l 1,14,-1
0 400 m 1,18,-1
 0 700 l 1,19,-1
 100 700 l 1,20,-1
 100 500 l 1,21,-1
 400 500 l 1,22,-1
 400 400 l 1,23,-1
 0 400 l 1,18,-1
600 600 m 1,24,-1
 600 700 l 1,25,-1
 700 700 l 1,26,-1
 700 600 l 1,27,-1
 600 600 l 1,24,-1
EndSplineSet
EndChar

StartChar: b
Encoding: 98 98 57
Width: 800
VWidth: 699
Flags: W
LayerCount: 2
Fore
SplineSet
200 0 m 1,0,-1
 200 100 l 1,1,-1
 500 100 l 1,2,-1
 500 0 l 1,3,-1
 200 0 l 1,0,-1
100 100 m 1,4,-1
 100 200 l 1,5,-1
 200 200 l 1,6,-1
 200 100 l 1,7,-1
 100 100 l 1,4,-1
500 100 m 1,8,-1
 500 200 l 1,9,-1
 600 200 l 1,10,-1
 600 100 l 1,11,-1
 500 100 l 1,8,-1
0 200 m 1,12,-1
 0 300 l 1,13,-1
 100 300 l 1,14,-1
 100 200 l 1,15,-1
 0 200 l 1,12,-1
600 200 m 1,16,-1
 600 300 l 1,17,-1
 700 300 l 1,18,-1
 700 200 l 1,19,-1
 600 200 l 1,16,-1
200 300 m 1,20,-1
 200 400 l 1,21,-1
 500 400 l 1,22,-1
 500 300 l 1,23,-1
 200 300 l 1,20,-1
0 400 m 1,24,-1
 0 500 l 1,25,-1
 100 500 l 1,26,-1
 100 400 l 1,27,-1
 0 400 l 1,24,-1
600 400 m 1,28,-1
 600 500 l 1,29,-1
 700 500 l 1,30,-1
 700 400 l 1,31,-1
 600 400 l 1,28,-1
100 500 m 1,32,-1
 100 600 l 1,33,-1
 200 600 l 1,34,-1
 200 500 l 1,35,-1
 100 500 l 1,32,-1
500 500 m 1,36,-1
 500 600 l 1,37,-1
 600 600 l 1,38,-1
 600 500 l 1,39,-1
 500 500 l 1,36,-1
200 600 m 1,40,-1
 200 700 l 1,41,-1
 500 700 l 1,42,-1
 500 600 l 1,43,-1
 200 600 l 1,40,-1
EndSplineSet
EndChar

StartChar: c
Encoding: 99 99 58
Width: 800
VWidth: 699
Flags: W
LayerCount: 2
Fore
SplineSet
300 300 m 1,0,-1
 300 400 l 1,1,-1
 400 400 l 1,2,-1
 400 300 l 1,3,-1
 300 300 l 1,0,-1
500 0 m 1,4,-1
 500 400 l 1,5,-1
 600 400 l 1,6,-1
 600 0 l 1,7,-1
 500 0 l 1,4,-1
100 300 m 1,8,-1
 100 700 l 1,9,-1
 200 700 l 1,10,-1
 200 300 l 1,11,-1
 100 300 l 1,8,-1
EndSplineSet
EndChar

StartChar: d
Encoding: 100 100 59
Width: 800
VWidth: 699
Flags: W
LayerCount: 2
Fore
SplineSet
300 0 m 1,0,-1
 300 200 l 1,1,-1
 400 200 l 1,2,-1
 400 0 l 1,3,-1
 300 0 l 1,0,-1
400 200 m 1,4,-1
 400 300 l 1,5,-1
 200 300 l 1,6,-1
 200 400 l 1,7,-1
 500 400 l 1,8,-1
 500 200 l 1,9,-1
 400 200 l 1,4,-1
500 400 m 1,10,-1
 500 600 l 1,11,-1
 0 600 l 1,12,-1
 0 700 l 1,13,-1
 700 700 l 1,14,-1
 700 600 l 1,15,-1
 600 600 l 1,16,-1
 600 400 l 1,17,-1
 500 400 l 1,10,-1
EndSplineSet
EndChar

StartChar: e
Encoding: 101 101 60
Width: 800
VWidth: 699
Flags: W
LayerCount: 2
Fore
SplineSet
200 0 m 1,0,-1
 200 200 l 1,1,-1
 300 200 l 1,2,-1
 300 0 l 1,3,-1
 200 0 l 1,0,-1
100 200 m 1,4,-1
 100 500 l 1,5,-1
 200 500 l 1,6,-1
 200 200 l 1,7,-1
 100 200 l 1,4,-1
300 200 m 1,8,-1
 300 500 l 1,9,-1
 400 500 l 1,10,-1
 400 200 l 1,11,-1
 300 200 l 1,8,-1
0 500 m 1,12,-1
 0 700 l 1,13,-1
 100 700 l 1,14,-1
 100 500 l 1,15,-1
 0 500 l 1,12,-1
500 0 m 1,16,-1
 500 500 l 1,17,-1
 400 500 l 1,18,-1
 400 700 l 1,19,-1
 700 700 l 1,20,-1
 700 600 l 1,21,-1
 600 600 l 1,22,-1
 600 0 l 1,23,-1
 500 0 l 1,16,-1
EndSplineSet
EndChar

StartChar: f
Encoding: 102 102 61
Width: 800
VWidth: 699
Flags: W
LayerCount: 2
Fore
SplineSet
300 100 m 1,0,-1
 300 300 l 1,1,-1
 100 300 l 1,2,-1
 100 100 l 1,3,-1
 300 100 l 1,0,-1
500 500 m 1,4,-1
 500 600 l 1,5,-1
 600 600 l 1,6,-1
 600 500 l 1,7,-1
 500 500 l 1,4,-1
0 0 m 1,8,-1
 0 400 l 1,9,-1
 300 400 l 1,10,-1
 300 700 l 1,11,-1
 400 700 l 1,12,-1
 400 500 l 1,13,-1
 500 500 l 1,14,-1
 500 400 l 1,15,-1
 400 400 l 1,16,-1
 400 100 l 1,17,-1
 700 100 l 1,18,-1
 700 0 l 1,19,-1
 0 0 l 1,8,-1
600 600 m 1,20,-1
 600 700 l 1,21,-1
 700 700 l 1,22,-1
 700 600 l 1,23,-1
 600 600 l 1,20,-1
EndSplineSet
EndChar

StartChar: g
Encoding: 103 103 62
Width: 800
VWidth: 699
Flags: W
LayerCount: 2
Fore
SplineSet
400 100 m 1,0,-1
 400 300 l 1,1,-1
 500 300 l 1,2,-1
 500 100 l 1,3,-1
 400 100 l 1,0,-1
500 300 m 1,4,-1
 500 500 l 1,5,-1
 600 500 l 1,6,-1
 600 300 l 1,7,-1
 500 300 l 1,4,-1
300 500 m 1,8,-1
 300 600 l 1,9,-1
 400 600 l 1,10,-1
 400 500 l 1,11,-1
 300 500 l 1,8,-1
0 0 m 1,12,-1
 0 700 l 1,13,-1
 100 700 l 1,14,-1
 100 100 l 1,15,-1
 400 100 l 1,16,-1
 400 0 l 1,17,-1
 0 0 l 1,12,-1
600 500 m 1,18,-1
 600 600 l 1,19,-1
 400 600 l 1,20,-1
 400 700 l 1,21,-1
 700 700 l 1,22,-1
 700 500 l 1,23,-1
 600 500 l 1,18,-1
EndSplineSet
EndChar

StartChar: h
Encoding: 104 104 63
Width: 800
VWidth: 699
Flags: W
LayerCount: 2
Fore
SplineSet
0 0 m 1,0,-1
 0 100 l 1,1,-1
 700 100 l 1,2,-1
 700 0 l 1,3,-1
 0 0 l 1,0,-1
100 300 m 1,4,-1
 100 400 l 1,5,-1
 600 400 l 1,6,-1
 600 300 l 1,7,-1
 100 300 l 1,4,-1
0 600 m 1,8,-1
 0 700 l 1,9,-1
 700 700 l 1,10,-1
 700 600 l 1,11,-1
 0 600 l 1,8,-1
EndSplineSet
EndChar

StartChar: i
Encoding: 105 105 64
Width: 800
VWidth: 699
Flags: W
LayerCount: 2
Fore
SplineSet
100 300 m 1,0,-1
 100 400 l 1,1,-1
 200 400 l 1,2,-1
 200 300 l 1,3,-1
 100 300 l 1,0,-1
200 400 m 1,4,-1
 200 500 l 1,5,-1
 300 500 l 1,6,-1
 300 400 l 1,7,-1
 200 400 l 1,4,-1
400 0 m 1,8,-1
 400 500 l 1,9,-1
 300 500 l 1,10,-1
 300 600 l 1,11,-1
 400 600 l 1,12,-1
 400 700 l 1,13,-1
 500 700 l 1,14,-1
 500 0 l 1,15,-1
 400 0 l 1,8,-1
EndSplineSet
EndChar

StartChar: j
Encoding: 106 106 65
Width: 800
VWidth: 699
Flags: W
LayerCount: 2
Fore
SplineSet
0 0 m 1,0,-1
 0 100 l 1,1,-1
 500 100 l 1,2,-1
 500 0 l 1,3,-1
 0 0 l 1,0,-1
0 300 m 1,4,-1
 0 400 l 1,5,-1
 200 400 l 1,6,-1
 200 300 l 1,7,-1
 0 300 l 1,4,-1
500 100 m 1,8,-1
 500 400 l 1,9,-1
 600 400 l 1,10,-1
 600 100 l 1,11,-1
 500 100 l 1,8,-1
200 400 m 1,12,-1
 200 500 l 1,13,-1
 400 500 l 1,14,-1
 400 400 l 1,15,-1
 200 400 l 1,12,-1
600 400 m 1,16,-1
 600 500 l 1,17,-1
 400 500 l 1,18,-1
 400 600 l 1,19,-1
 600 600 l 1,20,-1
 600 700 l 1,21,-1
 700 700 l 1,22,-1
 700 400 l 1,23,-1
 600 400 l 1,16,-1
EndSplineSet
EndChar

StartChar: k
Encoding: 107 107 66
Width: 800
VWidth: 699
Flags: W
LayerCount: 2
Fore
SplineSet
0 0 m 1,0,-1
 0 100 l 1,1,-1
 600 100 l 1,2,-1
 600 600 l 1,3,-1
 0 600 l 1,4,-1
 0 700 l 1,5,-1
 700 700 l 1,6,-1
 700 0 l 1,7,-1
 0 0 l 1,0,-1
EndSplineSet
EndChar

StartChar: l
Encoding: 108 108 67
Width: 800
VWidth: 699
Flags: W
LayerCount: 2
Fore
SplineSet
200 200 m 1,0,-1
 200 300 l 1,1,-1
 300 300 l 1,2,-1
 300 200 l 1,3,-1
 200 200 l 1,0,-1
100 300 m 1,4,-1
 100 400 l 1,5,-1
 200 400 l 1,6,-1
 200 300 l 1,7,-1
 100 300 l 1,4,-1
400 0 m 1,8,-1
 400 100 l 1,9,-1
 300 100 l 1,10,-1
 300 200 l 1,11,-1
 400 200 l 1,12,-1
 400 700 l 1,13,-1
 500 700 l 1,14,-1
 500 0 l 1,15,-1
 400 0 l 1,8,-1
EndSplineSet
EndChar

StartChar: m
Encoding: 109 109 68
Width: 800
VWidth: 699
Flags: W
LayerCount: 2
Fore
SplineSet
100 0 m 1,0,-1
 100 200 l 1,1,-1
 200 200 l 1,2,-1
 200 100 l 1,3,-1
 600 100 l 1,4,-1
 600 0 l 1,5,-1
 100 0 l 1,0,-1
200 200 m 1,6,-1
 200 400 l 1,7,-1
 300 400 l 1,8,-1
 300 200 l 1,9,-1
 200 200 l 1,6,-1
300 400 m 1,10,-1
 300 600 l 1,11,-1
 400 600 l 1,12,-1
 400 400 l 1,13,-1
 300 400 l 1,10,-1
400 600 m 1,14,-1
 400 700 l 1,15,-1
 600 700 l 1,16,-1
 600 600 l 1,17,-1
 400 600 l 1,14,-1
EndSplineSet
EndChar

StartChar: n
Encoding: 110 110 69
Width: 800
VWidth: 699
Flags: W
LayerCount: 2
Fore
SplineSet
100 0 m 1,0,-1
 100 200 l 1,1,-1
 200 200 l 1,2,-1
 200 300 l 1,3,-1
 300 300 l 1,4,-1
 300 0 l 1,5,-1
 100 0 l 1,0,-1
600 0 m 1,6,-1
 600 300 l 1,7,-1
 700 300 l 1,8,-1
 700 0 l 1,9,-1
 600 0 l 1,6,-1
0 200 m 1,10,-1
 0 500 l 1,11,-1
 100 500 l 1,12,-1
 100 200 l 1,13,-1
 0 200 l 1,10,-1
300 300 m 1,14,-1
 300 500 l 1,15,-1
 400 500 l 1,16,-1
 400 300 l 1,17,-1
 300 300 l 1,14,-1
500 300 m 1,18,-1
 500 500 l 1,19,-1
 600 500 l 1,20,-1
 600 300 l 1,21,-1
 500 300 l 1,18,-1
100 500 m 1,22,-1
 100 700 l 1,23,-1
 200 700 l 1,24,-1
 200 500 l 1,25,-1
 100 500 l 1,22,-1
400 500 m 1,26,-1
 400 700 l 1,27,-1
 500 700 l 1,28,-1
 500 500 l 1,29,-1
 400 500 l 1,26,-1
EndSplineSet
EndChar

StartChar: o
Encoding: 111 111 70
Width: 800
VWidth: 699
Flags: W
LayerCount: 2
Fore
SplineSet
0 0 m 1,0,-1
 0 300 l 1,1,-1
 100 300 l 1,2,-1
 100 100 l 1,3,-1
 600 100 l 1,4,-1
 600 300 l 1,5,-1
 700 300 l 1,6,-1
 700 0 l 1,7,-1
 0 0 l 1,0,-1
100 300 m 1,8,-1
 100 600 l 1,9,-1
 200 600 l 1,10,-1
 200 300 l 1,11,-1
 100 300 l 1,8,-1
500 300 m 1,12,-1
 500 600 l 1,13,-1
 600 600 l 1,14,-1
 600 300 l 1,15,-1
 500 300 l 1,12,-1
200 600 m 1,16,-1
 200 700 l 1,17,-1
 500 700 l 1,18,-1
 500 600 l 1,19,-1
 200 600 l 1,16,-1
EndSplineSet
EndChar

StartChar: p
Encoding: 112 112 71
Width: 800
VWidth: 699
Flags: W
LayerCount: 2
Fore
SplineSet
0 200 m 1,0,-1
 0 500 l 1,1,-1
 100 500 l 1,2,-1
 100 200 l 1,3,-1
 0 200 l 1,0,-1
300 500 m 1,4,-1
 300 600 l 1,5,-1
 400 600 l 1,6,-1
 400 500 l 1,7,-1
 300 500 l 1,4,-1
100 500 m 1,8,-1
 100 700 l 1,9,-1
 300 700 l 1,10,-1
 300 600 l 1,11,-1
 200 600 l 1,12,-1
 200 500 l 1,13,-1
 100 500 l 1,8,-1
100 0 m 1,14,-1
 100 200 l 1,15,-1
 200 200 l 1,16,-1
 200 100 l 1,17,-1
 600 100 l 1,18,-1
 600 700 l 1,19,-1
 700 700 l 1,20,-1
 700 0 l 1,21,-1
 100 0 l 1,14,-1
EndSplineSet
EndChar

StartChar: q
Encoding: 113 113 72
Width: 800
VWidth: 699
Flags: W
LayerCount: 2
Fore
SplineSet
0 0 m 1,0,-1
 0 700 l 1,1,-1
 700 700 l 1,2,-1
 700 300 l 1,3,-1
 600 300 l 1,4,-1
 600 600 l 1,5,-1
 100 600 l 1,6,-1
 100 100 l 1,7,-1
 500 100 l 1,8,-1
 500 0 l 1,9,-1
 0 0 l 1,0,-1
EndSplineSet
EndChar

StartChar: r
Encoding: 114 114 73
Width: 800
VWidth: 699
Flags: W
LayerCount: 2
Fore
SplineSet
300 0 m 1,0,-1
 300 200 l 1,1,-1
 400 200 l 1,2,-1
 400 0 l 1,3,-1
 300 0 l 1,0,-1
400 200 m 1,4,-1
 400 400 l 1,5,-1
 500 400 l 1,6,-1
 500 200 l 1,7,-1
 400 200 l 1,4,-1
500 400 m 1,8,-1
 500 600 l 1,9,-1
 0 600 l 1,10,-1
 0 700 l 1,11,-1
 700 700 l 1,12,-1
 700 600 l 1,13,-1
 600 600 l 1,14,-1
 600 400 l 1,15,-1
 500 400 l 1,8,-1
EndSplineSet
EndChar

StartChar: s
Encoding: 115 115 74
Width: 800
VWidth: 699
Flags: W
LayerCount: 2
Fore
SplineSet
300 0 m 1,0,-1
 300 100 l 1,1,-1
 400 100 l 1,2,-1
 400 0 l 1,3,-1
 300 0 l 1,0,-1
100 100 m 1,4,-1
 100 200 l 1,5,-1
 300 200 l 1,6,-1
 300 100 l 1,7,-1
 100 100 l 1,4,-1
0 200 m 1,8,-1
 0 300 l 1,9,-1
 100 300 l 1,10,-1
 100 200 l 1,11,-1
 0 200 l 1,8,-1
400 200 m 1,12,-1
 400 300 l 1,13,-1
 500 300 l 1,14,-1
 500 200 l 1,15,-1
 400 200 l 1,12,-1
300 300 m 1,16,-1
 300 400 l 1,17,-1
 400 400 l 1,18,-1
 400 300 l 1,19,-1
 300 300 l 1,16,-1
200 400 m 1,20,-1
 200 500 l 1,21,-1
 300 500 l 1,22,-1
 300 400 l 1,23,-1
 200 400 l 1,20,-1
100 500 m 1,24,-1
 100 600 l 1,25,-1
 200 600 l 1,26,-1
 200 500 l 1,27,-1
 100 500 l 1,24,-1
0 600 m 1,28,-1
 0 700 l 1,29,-1
 100 700 l 1,30,-1
 100 600 l 1,31,-1
 0 600 l 1,28,-1
600 0 m 1,32,-1
 600 100 l 1,33,-1
 500 100 l 1,34,-1
 500 200 l 1,35,-1
 600 200 l 1,36,-1
 600 700 l 1,37,-1
 700 700 l 1,38,-1
 700 0 l 1,39,-1
 600 0 l 1,32,-1
EndSplineSet
EndChar

StartChar: t
Encoding: 116 116 75
Width: 800
VWidth: 699
Flags: W
LayerCount: 2
Fore
SplineSet
100 200 m 1,0,-1
 100 300 l 1,1,-1
 200 300 l 1,2,-1
 200 200 l 1,3,-1
 100 200 l 1,0,-1
500 200 m 1,4,-1
 500 300 l 1,5,-1
 600 300 l 1,6,-1
 600 200 l 1,7,-1
 500 200 l 1,4,-1
0 300 m 1,8,-1
 0 400 l 1,9,-1
 100 400 l 1,10,-1
 100 300 l 1,11,-1
 0 300 l 1,8,-1
600 300 m 1,12,-1
 600 400 l 1,13,-1
 700 400 l 1,14,-1
 700 300 l 1,15,-1
 600 300 l 1,12,-1
300 0 m 1,16,-1
 300 100 l 1,17,-1
 200 100 l 1,18,-1
 200 200 l 1,19,-1
 300 200 l 1,20,-1
 300 700 l 1,21,-1
 400 700 l 1,22,-1
 400 200 l 1,23,-1
 500 200 l 1,24,-1
 500 100 l 1,25,-1
 400 100 l 1,26,-1
 400 0 l 1,27,-1
 300 0 l 1,16,-1
EndSplineSet
EndChar

StartChar: u
Encoding: 117 117 76
Width: 800
VWidth: 699
Flags: W
LayerCount: 2
Fore
SplineSet
300 500 m 1,0,-1
 300 600 l 1,1,-1
 400 600 l 1,2,-1
 400 500 l 1,3,-1
 300 500 l 1,0,-1
0 0 m 1,4,-1
 0 700 l 1,5,-1
 100 700 l 1,6,-1
 100 100 l 1,7,-1
 600 100 l 1,8,-1
 600 600 l 1,9,-1
 400 600 l 1,10,-1
 400 700 l 1,11,-1
 700 700 l 1,12,-1
 700 0 l 1,13,-1
 0 0 l 1,4,-1
EndSplineSet
EndChar

StartChar: v
Encoding: 118 118 77
Width: 800
VWidth: 699
Flags: W
LayerCount: 2
Fore
SplineSet
300 0 m 1,0,-1
 300 400 l 1,1,-1
 400 400 l 1,2,-1
 400 0 l 1,3,-1
 300 0 l 1,0,-1
200 400 m 1,4,-1
 200 500 l 1,5,-1
 300 500 l 1,6,-1
 300 400 l 1,7,-1
 200 400 l 1,4,-1
400 400 m 1,8,-1
 400 500 l 1,9,-1
 500 500 l 1,10,-1
 500 400 l 1,11,-1
 400 400 l 1,8,-1
100 500 m 1,12,-1
 100 600 l 1,13,-1
 200 600 l 1,14,-1
 200 500 l 1,15,-1
 100 500 l 1,12,-1
500 500 m 1,16,-1
 500 600 l 1,17,-1
 600 600 l 1,18,-1
 600 500 l 1,19,-1
 500 500 l 1,16,-1
0 600 m 1,20,-1
 0 700 l 1,21,-1
 100 700 l 1,22,-1
 100 600 l 1,23,-1
 0 600 l 1,20,-1
600 600 m 1,24,-1
 600 700 l 1,25,-1
 700 700 l 1,26,-1
 700 600 l 1,27,-1
 600 600 l 1,24,-1
EndSplineSet
EndChar

StartChar: w
Encoding: 119 119 78
Width: 800
VWidth: 699
Flags: W
LayerCount: 2
Fore
SplineSet
600 100 m 1,0,-1
 600 600 l 1,1,-1
 100 600 l 1,2,-1
 100 100 l 1,3,-1
 600 100 l 1,0,-1
0 0 m 1,4,-1
 0 700 l 1,5,-1
 700 700 l 1,6,-1
 700 0 l 1,7,-1
 0 0 l 1,4,-1
EndSplineSet
EndChar

StartChar: x
Encoding: 120 120 79
Width: 800
VWidth: 699
Flags: W
LayerCount: 2
Fore
SplineSet
0 0 m 1,0,-1
 0 200 l 1,1,-1
 100 200 l 1,2,-1
 100 100 l 1,3,-1
 600 100 l 1,4,-1
 600 200 l 1,5,-1
 700 200 l 1,6,-1
 700 0 l 1,7,-1
 0 0 l 1,0,-1
100 200 m 1,8,-1
 100 400 l 1,9,-1
 200 400 l 1,10,-1
 200 200 l 1,11,-1
 100 200 l 1,8,-1
500 200 m 1,12,-1
 500 400 l 1,13,-1
 600 400 l 1,14,-1
 600 200 l 1,15,-1
 500 200 l 1,12,-1
200 400 m 1,16,-1
 200 600 l 1,17,-1
 300 600 l 1,18,-1
 300 400 l 1,19,-1
 200 400 l 1,16,-1
400 400 m 1,20,-1
 400 600 l 1,21,-1
 500 600 l 1,22,-1
 500 400 l 1,23,-1
 400 400 l 1,20,-1
300 600 m 1,24,-1
 300 700 l 1,25,-1
 400 700 l 1,26,-1
 400 600 l 1,27,-1
 300 600 l 1,24,-1
EndSplineSet
EndChar

StartChar: y
Encoding: 121 121 80
Width: 800
VWidth: 699
Flags: W
LayerCount: 2
Fore
SplineSet
300 0 m 1,0,-1
 300 100 l 1,1,-1
 400 100 l 1,2,-1
 400 0 l 1,3,-1
 300 0 l 1,0,-1
200 100 m 1,4,-1
 200 300 l 1,5,-1
 300 300 l 1,6,-1
 300 100 l 1,7,-1
 200 100 l 1,4,-1
400 100 m 1,8,-1
 400 300 l 1,9,-1
 500 300 l 1,10,-1
 500 100 l 1,11,-1
 400 100 l 1,8,-1
100 300 m 1,12,-1
 100 500 l 1,13,-1
 200 500 l 1,14,-1
 200 300 l 1,15,-1
 100 300 l 1,12,-1
300 300 m 1,16,-1
 300 500 l 1,17,-1
 400 500 l 1,18,-1
 400 300 l 1,19,-1
 300 300 l 1,16,-1
500 300 m 1,20,-1
 500 500 l 1,21,-1
 600 500 l 1,22,-1
 600 300 l 1,23,-1
 500 300 l 1,20,-1
0 500 m 1,24,-1
 0 700 l 1,25,-1
 300 700 l 1,26,-1
 300 500 l 1,27,-1
 200 500 l 1,28,-1
 200 600 l 1,29,-1
 100 600 l 1,30,-1
 100 500 l 1,31,-1
 0 500 l 1,24,-1
600 500 m 1,32,-1
 600 700 l 1,33,-1
 700 700 l 1,34,-1
 700 500 l 1,35,-1
 600 500 l 1,32,-1
EndSplineSet
EndChar

StartChar: z
Encoding: 122 122 81
Width: 800
VWidth: 699
Flags: W
LayerCount: 2
Fore
SplineSet
100 300 m 1,0,-1
 100 400 l 1,1,-1
 200 400 l 1,2,-1
 200 300 l 1,3,-1
 100 300 l 1,0,-1
0 0 m 1,4,-1
 0 200 l 1,5,-1
 100 200 l 1,6,-1
 100 100 l 1,7,-1
 600 100 l 1,8,-1
 600 400 l 1,9,-1
 200 400 l 1,10,-1
 200 500 l 1,11,-1
 600 500 l 1,12,-1
 600 700 l 1,13,-1
 700 700 l 1,14,-1
 700 0 l 1,15,-1
 0 0 l 1,4,-1
EndSplineSet
EndChar

StartChar: braceleft
Encoding: 123 123 82
Width: 800
VWidth: 699
Flags: W
LayerCount: 2
Fore
SplineSet
0 100 m 1,0,-1
 0 200 l 1,1,-1
 700 200 l 1,2,-1
 700 100 l 1,3,-1
 0 100 l 1,0,-1
0 300 m 1,4,-1
 0 400 l 1,5,-1
 100 400 l 1,6,-1
 100 300 l 1,7,-1
 0 300 l 1,4,-1
600 300 m 1,8,-1
 600 400 l 1,9,-1
 700 400 l 1,10,-1
 700 300 l 1,11,-1
 600 300 l 1,8,-1
100 400 m 1,12,-1
 100 700 l 1,13,-1
 600 700 l 1,14,-1
 600 400 l 1,15,-1
 500 400 l 1,16,-1
 500 600 l 1,17,-1
 200 600 l 1,18,-1
 200 400 l 1,19,-1
 100 400 l 1,12,-1
EndSplineSet
EndChar

StartChar: braceright
Encoding: 125 125 83
Width: 800
VWidth: 699
Flags: W
LayerCount: 2
Fore
SplineSet
0 0 m 1,0,-1
 0 100 l 1,1,-1
 100 100 l 1,2,-1
 100 0 l 1,3,-1
 0 0 l 1,0,-1
200 0 m 1,4,-1
 200 100 l 1,5,-1
 400 100 l 1,6,-1
 400 0 l 1,7,-1
 200 0 l 1,4,-1
400 100 m 1,8,-1
 400 300 l 1,9,-1
 500 300 l 1,10,-1
 500 100 l 1,11,-1
 400 100 l 1,8,-1
500 300 m 1,12,-1
 500 500 l 1,13,-1
 600 500 l 1,14,-1
 600 300 l 1,15,-1
 500 300 l 1,12,-1
0 600 m 1,16,-1
 0 700 l 1,17,-1
 100 700 l 1,18,-1
 100 600 l 1,19,-1
 0 600 l 1,16,-1
600 500 m 1,20,-1
 600 600 l 1,21,-1
 200 600 l 1,22,-1
 200 700 l 1,23,-1
 700 700 l 1,24,-1
 700 500 l 1,25,-1
 600 500 l 1,20,-1
EndSplineSet
EndChar

StartChar: quoteleft
Encoding: 8216 8216 84
Width: 800
VWidth: 699
Flags: W
LayerCount: 2
Fore
SplineSet
400 400 m 1,0,-1
 400 600 l 1,1,-1
 300 600 l 1,2,-1
 300 700 l 1,3,-1
 500 700 l 1,4,-1
 500 400 l 1,5,-1
 400 400 l 1,0,-1
EndSplineSet
EndChar

StartChar: quoteright
Encoding: 8217 8217 85
Width: 800
VWidth: 699
Flags: W
LayerCount: 2
Fore
SplineSet
200 400 m 1,0,-1
 200 700 l 1,1,-1
 400 700 l 1,2,-1
 400 600 l 1,3,-1
 300 600 l 1,4,-1
 300 400 l 1,5,-1
 200 400 l 1,0,-1
EndSplineSet
EndChar

StartChar: quotedblleft
Encoding: 8220 8220 86
Width: 800
VWidth: 699
Flags: W
LayerCount: 2
Fore
SplineSet
300 600 m 1,0,-1
 300 700 l 1,1,-1
 400 700 l 1,2,-1
 400 600 l 1,3,-1
 300 600 l 1,0,-1
500 400 m 1,4,-1
 500 500 l 1,5,-1
 400 500 l 1,6,-1
 400 600 l 1,7,-1
 500 600 l 1,8,-1
 500 700 l 1,9,-1
 600 700 l 1,10,-1
 600 400 l 1,11,-1
 500 400 l 1,4,-1
EndSplineSet
EndChar

StartChar: quotedblright
Encoding: 8221 8221 87
Width: 800
VWidth: 699
Flags: W
LayerCount: 2
Fore
SplineSet
100 400 m 1,0,-1
 100 700 l 1,1,-1
 200 700 l 1,2,-1
 200 600 l 1,3,-1
 300 600 l 1,4,-1
 300 500 l 1,5,-1
 200 500 l 1,6,-1
 200 400 l 1,7,-1
 100 400 l 1,0,-1
300 600 m 1,8,-1
 300 700 l 1,9,-1
 400 700 l 1,10,-1
 400 600 l 1,11,-1
 300 600 l 1,8,-1
EndSplineSet
EndChar

StartChar: semicolon
Encoding: 59 59 88
Width: 800
VWidth: 2048
Flags: W
LayerCount: 2
Fore
SplineSet
100 0 m 1,0,-1
 100 699.998046875 l 1,1,-1
 199.8046875 699.998046875 l 5,2,-1
 199.8046875 0 l 1,3,-1
 100 0 l 1,0,-1
EndSplineSet
EndChar
